<svg width="27" height="27" viewBox="0 0 27 27" fill="none" xmlns="http://www.w3.org/2000/svg">
<circle cx="13.5" cy="13.5" r="12.5" stroke="white" stroke-width="2"/>
<path d="M7.93078 17H6.82911L9.3045 10.1213H10.5036L12.979 17H11.8773L9.93258 11.3708H9.87884L7.93078 17ZM8.11551 14.3063H11.6892V15.1796H8.11551V14.3063ZM16.1991 17H13.9723V10.1213H16.2697C16.9437 10.1213 17.5225 10.259 18.0061 10.5344C18.4898 10.8076 18.8604 11.2006 19.1179 11.7134C19.3776 12.2239 19.5075 12.8363 19.5075 13.5506C19.5075 14.2671 19.3765 14.8829 19.1145 15.3979C18.8548 15.9129 18.4786 16.3092 17.986 16.5869C17.4934 16.8623 16.8978 17 16.1991 17ZM15.0101 16.0931H16.142C16.666 16.0931 17.1015 15.9946 17.4486 15.7976C17.7957 15.5983 18.0554 15.3106 18.2278 14.9344C18.4002 14.556 18.4864 14.0947 18.4864 13.5506C18.4864 13.0109 18.4002 12.553 18.2278 12.1769C18.0576 11.8007 17.8035 11.5152 17.4654 11.3204C17.1273 11.1256 16.7074 11.0282 16.2059 11.0282H15.0101V16.0931Z" fill="white"/>
</svg>
