<svg width="13" height="8" viewBox="0 0 13 8" fill="none" xmlns="http://www.w3.org/2000/svg">
<path d="M2.47955e-05 1.47442C-0.00347328 1.73737 0.0979767 1.95718 0.280469 2.14025C2.13513 3.99608 3.98863 5.85308 5.84738 7.70425C6.25784 8.11296 6.80415 8.0943 7.22686 7.6716C9.05295 5.849 10.8773 4.02465 12.6999 2.19914C13.0952 1.80326 13.0987 1.22721 12.718 0.852893C12.3448 0.486741 11.7764 0.493738 11.3863 0.883211C9.83307 2.43178 8.28333 3.98442 6.73185 5.53532C6.52429 5.74288 6.52429 5.74288 6.32314 5.54173C4.77749 3.9955 3.22951 2.4516 1.68736 0.901869C1.42324 0.636001 1.12705 0.485575 0.748071 0.552625C0.31312 0.629587 -0.000557899 1.02139 2.47955e-05 1.47442Z" fill="#B4B4B4"/>
</svg>
