<svg width="13" height="8" viewBox="0 0 13 8" fill="none" xmlns="http://www.w3.org/2000/svg">
<path d="M2.47955e-05 6.52558C-0.00347328 6.26263 0.0979767 6.04282 0.280469 5.85975C2.13513 4.00392 3.98863 2.14692 5.84738 0.295754C6.25784 -0.11296 6.80415 -0.0943022 7.22686 0.328405C9.05295 2.151 10.8773 3.97535 12.6999 5.80086C13.0952 6.19674 13.0987 6.77279 12.718 7.14711C12.3448 7.51326 11.7764 7.50626 11.3863 7.11679C9.83307 5.56822 8.28333 4.01558 6.73185 2.46468C6.52429 2.25712 6.52429 2.25712 6.32314 2.45827C4.77749 4.0045 3.22951 5.5484 1.68736 7.09813C1.42324 7.364 1.12705 7.51443 0.748071 7.44738C0.31312 7.37041 -0.000557899 6.97861 2.47955e-05 6.52558Z" fill="#B4B4B4"/>
</svg>
