<svg width="19" height="16" viewBox="0 0 19 16" fill="none" xmlns="http://www.w3.org/2000/svg">
<path d="M3.4983 6.12398C4.27346 6.89858 5.01694 7.64489 5.76438 8.38723C6.03257 8.65373 6.17233 8.9655 6.10103 9.34402C6.02691 9.73726 5.7921 10.0094 5.41131 10.1328C5.02939 10.2567 4.68028 10.1718 4.39285 9.89286C3.95208 9.46398 3.52093 9.02491 3.08469 8.59093C2.16807 7.67771 1.25258 6.76335 0.33427 5.85126C-0.107629 5.41219 -0.112722 4.77961 0.326915 4.34167C1.63903 3.03351 2.95115 1.72535 4.26271 0.41663C4.77194 -0.0914701 5.37623 -0.138433 5.8153 0.295546C6.25946 0.734051 6.2125 1.34739 5.69591 1.86398C5.0209 2.53956 4.34588 3.21401 3.67143 3.88959C3.62277 3.93825 3.57694 3.98917 3.49716 4.07404C3.60976 4.07404 3.68332 4.07404 3.75744 4.07404C6.68495 4.07404 9.61304 4.04349 12.54 4.08366C15.003 4.11761 16.8136 5.27922 17.8388 7.52267C19.4027 10.9475 17.2159 14.9388 13.4928 15.5385C13.2059 15.5849 12.9185 15.6155 12.6277 15.6155C10.1313 15.6161 7.63552 15.6178 5.13915 15.6155C4.41152 15.6149 3.91869 14.9614 4.12974 14.2892C4.2661 13.8552 4.65708 13.5803 5.15047 13.5803C6.84055 13.5791 8.53063 13.5797 10.2207 13.5797C10.9987 13.5797 11.7767 13.5831 12.5541 13.5791C14.7053 13.5678 16.37 11.8364 16.3009 9.68464C16.2398 7.76767 14.616 6.13247 12.699 6.11889C9.67245 6.09739 6.64591 6.1121 3.61938 6.1121C3.59335 6.11154 3.56676 6.11663 3.4983 6.12398Z" fill="#B4B4B4"/>
</svg>
