<svg width="16" height="16" viewBox="0 0 16 16" fill="none" xmlns="http://www.w3.org/2000/svg">
<path d="M14.2139 7.99078C14.2139 9.45993 14.2139 10.9172 14.2139 12.3864C14.2139 13.2987 13.6452 13.9977 12.7803 14.1754C12.6263 14.211 12.4604 14.211 12.3064 14.211C10.9202 14.211 9.53398 14.211 8.13592 14.211C7.99375 14.211 7.83972 14.2228 7.7094 14.2702C7.29472 14.4124 7.05776 14.8271 7.12885 15.2654C7.18809 15.6801 7.56722 16 8.01744 16C9.53398 16 11.0387 16 12.5552 16C12.7685 16 12.9817 15.9645 13.195 15.9171C14.7826 15.5853 15.9911 14.1517 15.9911 12.5285C16.003 9.50732 16.003 6.48609 15.9911 3.46487C15.9793 1.59289 14.4035 0.0171137 12.5315 0.00526576C11.0268 -0.00658219 9.53398 0.00526576 8.02929 0.00526576C7.51983 -0.00658219 7.12885 0.372552 7.117 0.858318C7.10515 1.35593 7.47244 1.74691 7.99375 1.77061C8.2781 1.78246 8.56245 1.77061 8.8468 1.77061C10.0079 1.77061 11.1808 1.77061 12.3419 1.77061C13.4675 1.77061 14.2139 2.51703 14.2139 3.63074C14.2139 5.08804 14.2139 6.54533 14.2139 7.99078Z" fill="#B4B4B4"/>
<path d="M3.07683 7.04285C3.43227 6.68741 3.78771 6.33197 4.15499 5.97653C4.4038 5.72773 4.49858 5.41968 4.4038 5.07609C4.23793 4.48369 3.5152 4.24673 3.02944 4.61402C2.9465 4.67326 2.88726 4.74435 2.81617 4.81543C1.95127 5.66849 1.09822 6.53339 0.23332 7.38644C-0.0984221 7.70633 -0.0747261 8.27504 0.280712 8.64232C1.09822 9.45983 1.91573 10.2773 2.73324 11.1067C2.78063 11.1541 2.82802 11.2015 2.87541 11.2489C3.2664 11.628 3.82325 11.6399 4.17869 11.2726C4.53413 10.9171 4.51043 10.3721 4.1313 9.99299C3.82325 9.68494 3.5152 9.37689 3.20716 9.06885C3.15977 9.02146 3.08868 8.98591 3.07683 8.91482C3.14792 8.87928 3.23085 8.89113 3.30194 8.89113C5.74262 8.89113 8.17145 8.89113 10.6121 8.89113C11.1927 8.89113 11.5837 8.4883 11.5481 7.93144C11.5244 7.54046 11.2282 7.20872 10.8372 7.13763C10.7188 7.10209 10.6003 7.10209 10.4818 7.10209C8.11221 7.10209 5.73077 7.10209 3.36118 7.10209C3.27824 7.10209 3.18346 7.10209 3.10052 7.10209C3.10052 7.07839 3.08868 7.0547 3.07683 7.04285Z" fill="#B4B4B4"/>
</svg>
