<svg width="18" height="18" viewBox="0 0 18 18" fill="none" xmlns="http://www.w3.org/2000/svg">
<path d="M9.40023 17.0643C7.58396 17.0643 5.7677 17.0643 3.95143 17.0643C2.30218 17.0643 1.01827 15.8106 1.00783 14.1869C0.99739 12.0187 0.99739 9.85038 1.00783 7.6821C1.00783 6.67503 1.44624 5.87349 2.2813 5.28775C4.08713 4.03405 5.89296 2.79063 7.70922 1.54721C8.77393 0.817597 10.0578 0.817597 11.1226 1.54721C12.9388 2.79063 14.7446 4.03405 16.5505 5.28775C17.396 5.87349 17.8344 6.68531 17.8344 7.71293C17.8344 9.86066 17.8448 11.9981 17.8344 14.1458C17.8239 15.8106 16.5505 17.0643 14.8595 17.0643C13.0328 17.0643 11.2165 17.0643 9.40023 17.0643ZM2.17692 10.9191C2.17692 11.9878 2.17692 13.0463 2.17692 14.115C2.17692 15.1632 2.92848 15.8928 3.99318 15.9031C4.49422 15.9031 4.99526 15.8928 5.4963 15.9031C5.65288 15.9031 5.70507 15.8722 5.70507 15.7078C5.69463 14.7213 5.70507 13.7348 5.70507 12.7483C5.70507 12.5222 5.71551 12.3064 5.74682 12.0803C6.03909 10.0251 8.13719 8.59669 10.204 9.04884C11.9472 9.43933 13.1267 10.878 13.1371 12.6558C13.1476 13.6731 13.1476 14.6905 13.1371 15.7078C13.1371 15.8722 13.1893 15.9031 13.3459 15.9031C13.8469 15.8928 14.348 15.9031 14.849 15.9031C15.9033 15.9031 16.6653 15.1735 16.6653 14.1356C16.6757 11.9878 16.6653 9.84011 16.6653 7.6821C16.6653 7.06553 16.3939 6.58255 15.8929 6.22288C14.0975 4.98974 12.3125 3.74632 10.5171 2.51317C9.77601 2.03019 9.04533 2.04047 8.31464 2.53372C6.54013 3.75659 4.76562 4.97946 2.99111 6.19205C2.43788 6.58255 2.16648 7.09636 2.17692 7.76431C2.17692 8.81249 2.17692 9.87093 2.17692 10.9191ZM9.40023 15.9031C10.1935 15.9031 10.9869 15.9031 11.7802 15.9031C11.9159 15.9031 11.9576 15.862 11.9576 15.7284C11.9472 14.7008 11.9576 13.6731 11.9576 12.6455C11.9576 12.5325 11.9576 12.4194 11.9367 12.3064C11.7488 11.0116 10.5798 10.0456 9.29585 10.1278C7.92843 10.2203 6.8846 11.2685 6.87416 12.6044C6.86372 13.6526 6.87416 14.7008 6.86372 15.7489C6.86372 15.8825 6.90547 15.9031 7.03073 15.9031C7.82404 15.9031 8.61736 15.9031 9.40023 15.9031Z" fill="#B4B4B4" stroke="#B4B4B4" stroke-width="0.337055"/>
</svg>
