<svg width="23" height="17" viewBox="0 0 23 17" fill="none" xmlns="http://www.w3.org/2000/svg">
<path d="M12.291 8.15355C12.291 10.1925 12.291 12.2315 12.291 14.2705C12.291 15.0975 11.9773 15.7392 11.2216 16.0956C10.4516 16.4664 9.73869 16.2953 9.08279 15.7534C7.6997 14.5842 6.31661 13.4435 4.93351 12.2886C4.8337 12.1888 4.73389 12.146 4.5913 12.146C3.72152 12.146 2.83748 12.146 1.9677 12.146C0.827005 12.146 0.0285174 11.3618 0.0142587 10.2211C0 8.83796 0 7.45487 0 6.07178C0 4.93108 0.798487 4.14685 1.95344 4.14685C2.82322 4.14685 3.693 4.14685 4.56278 4.14685C4.71963 4.14685 4.84796 4.10408 4.96203 4.00426C6.37364 2.82079 7.78525 1.65158 9.19686 0.482366C10.0239 -0.216311 11.136 -0.145017 11.8205 0.624953C12.1627 0.995679 12.3053 1.4377 12.3053 1.93675C12.291 4.01852 12.291 6.08603 12.291 8.15355ZM10.694 8.16781C10.694 6.14307 10.694 4.10408 10.694 2.07934C10.694 2.00805 10.694 1.92249 10.694 1.8512C10.6655 1.63732 10.4659 1.55177 10.2805 1.65158C10.2092 1.69436 10.1665 1.73713 10.1094 1.79417C8.65503 3.00616 7.20064 4.20389 5.76052 5.41588C5.4896 5.64402 5.21869 5.74383 4.87648 5.74383C3.92114 5.72957 2.96581 5.74383 2.02474 5.74383C1.68253 5.74383 1.62549 5.81512 1.62549 6.12881C1.62549 7.46913 1.62549 8.82371 1.62549 10.164C1.62549 10.492 1.69679 10.549 2.02474 10.549C2.95155 10.549 3.87837 10.5633 4.80518 10.549C5.20443 10.5347 5.51812 10.6631 5.83181 10.9197C7.27194 12.1317 8.71207 13.3295 10.1522 14.5272C10.2663 14.627 10.3946 14.7268 10.5514 14.6555C10.7083 14.57 10.694 14.4131 10.694 14.2563C10.694 12.2315 10.694 10.2068 10.694 8.16781Z" fill="#B4B4B4"/>
<path d="M22.985 5.45858C22.9993 5.71523 22.871 5.91486 22.6999 6.10022C22.0725 6.71334 21.4594 7.34073 20.832 7.95385C20.6609 8.1107 20.6894 8.19625 20.8462 8.33884C21.4879 8.96622 22.1153 9.5936 22.7426 10.2352C23.0136 10.5062 23.0706 10.8626 22.9137 11.1763C22.7569 11.49 22.4432 11.6469 22.0867 11.6041C21.8729 11.5756 21.716 11.4615 21.5734 11.3189C20.9603 10.7058 20.3472 10.0927 19.7341 9.47953C19.5772 9.32269 19.4917 9.29417 19.3348 9.46527C18.7217 10.1069 18.08 10.7343 17.4384 11.3617C17.1675 11.6326 16.7968 11.6896 16.4973 11.5328C16.1836 11.3759 16.0268 11.0622 16.0696 10.7058C16.0981 10.5062 16.1979 10.3493 16.3405 10.2067C16.9679 9.57934 17.581 8.95196 18.2226 8.33884C18.3937 8.18199 18.3652 8.09644 18.2084 7.95385C17.5667 7.32647 16.9251 6.68483 16.2977 6.04318C16.041 5.78653 15.984 5.40154 16.1551 5.10211C16.3262 4.80268 16.6399 4.64583 16.9964 4.70287C17.196 4.73138 17.3528 4.84545 17.4812 4.98804C18.1086 5.61542 18.7359 6.22855 19.3491 6.87019C19.4917 7.01278 19.5629 6.99852 19.6913 6.85593C20.3187 6.21429 20.9603 5.57265 21.6019 4.94526C21.8586 4.68861 22.1723 4.63157 22.5002 4.7599C22.8139 4.85971 22.9708 5.11637 22.985 5.45858Z" fill="#B4B4B4"/>
</svg>
