<svg width="20" height="21" viewBox="0 0 20 21" fill="none" xmlns="http://www.w3.org/2000/svg">
<path d="M9.69008 0C10.029 0.0911281 10.3479 0.239211 10.5871 0.546768C10.8761 0.89989 10.9957 1.33275 10.9957 1.81117C10.9957 4.60197 10.9957 7.39276 10.9957 10.1836C10.9957 11.0721 10.5771 11.6986 9.86948 11.9378C9.02231 12.2226 8.0954 11.4935 8.01566 10.4911C8.00569 10.2975 7.99573 10.1038 7.99573 9.92157C7.99573 7.24468 7.99573 4.56779 7.99573 1.89091C7.99573 1.3897 8.0954 0.934063 8.3944 0.558159C8.64357 0.250602 8.96251 0.102519 9.31134 0C9.44091 0 9.56051 0 9.69008 0Z" fill="white"/>
<path d="M16.9957 10.46C16.9457 8.45004 16.0557 6.54004 14.2757 5.06004C13.7657 4.63004 13.6157 4.08004 13.8857 3.57004C14.2257 2.94004 15.0357 2.77004 15.6057 3.24004C17.5657 4.83004 18.7657 6.85004 19.1357 9.35004C19.8257 14.08 17.0357 18.53 12.4857 19.97C8.57571 21.21 4.21571 19.75 1.82571 16.42C0.825707 15.03 0.195707 13.48 0.0457065 11.77C-0.244293 8.48004 0.845706 5.71004 3.31571 3.49004C3.51571 3.31004 3.71571 3.12004 3.97571 3.03004C4.47571 2.86004 5.01571 3.04004 5.29571 3.49004C5.57571 3.94004 5.52571 4.52004 5.14571 4.88004C4.75571 5.24004 4.34571 5.58004 4.00571 5.98004C2.67571 7.57004 2.05571 9.41004 2.28571 11.46C2.59571 14.32 4.12571 16.37 6.74571 17.55C8.04571 18.14 9.43571 18.3 10.8357 18.03C13.4557 17.54 15.3057 16.05 16.4057 13.64C16.7857 12.8 17.0057 11.66 16.9957 10.46Z" fill="white"/>
</svg>
