<svg width="19" height="19" viewBox="0 0 19 19" fill="none" xmlns="http://www.w3.org/2000/svg">
<mask id="path-1-inside-1_2_22" fill="white">
<path fill-rule="evenodd" clip-rule="evenodd" d="M12.5156 2.08672C12.5156 1.17096 11.7732 0.428589 10.8575 0.428589H8.19003C7.27427 0.428589 6.5319 1.17096 6.5319 2.08672V4.82623C6.5319 5.74199 5.78953 6.48436 4.87377 6.48436H2.13433C1.21857 6.48436 0.476196 7.22673 0.476196 8.14249V10.8099C0.476196 11.7257 1.21856 12.468 2.13432 12.468H4.87377C5.78953 12.468 6.5319 13.2104 6.5319 14.1262V16.8657C6.5319 17.7815 7.27427 18.5238 8.19003 18.5238H10.8575C11.7732 18.5238 12.5156 17.7815 12.5156 16.8657V14.1262C12.5156 13.2104 13.258 12.468 14.1737 12.468H16.9133C17.8291 12.468 18.5714 11.7257 18.5714 10.8099V8.14249C18.5714 7.22673 17.8291 6.48436 16.9133 6.48436H14.1737C13.258 6.48436 12.5156 5.74199 12.5156 4.82623V2.08672Z"/>
</mask>
<path d="M8.19003 1.38097H10.8575V-0.523792H8.19003V1.38097ZM7.48428 4.82623V2.08672H5.57952V4.82623H7.48428ZM2.13433 7.43674H4.87377V5.53198H2.13433V7.43674ZM1.42858 10.8099V8.14249H-0.476185V10.8099H1.42858ZM4.87377 11.5157H2.13432V13.4204H4.87377V11.5157ZM7.48428 16.8657V14.1262H5.57952V16.8657H7.48428ZM10.8575 17.5714H8.19003V19.4762H10.8575V17.5714ZM11.5632 14.1262V16.8657H13.468V14.1262H11.5632ZM16.9133 11.5157H14.1737V13.4204H16.9133V11.5157ZM17.6191 8.14249V10.8099H19.5238V8.14249H17.6191ZM14.1737 7.43674H16.9133V5.53198H14.1737V7.43674ZM11.5632 2.08672V4.82623H13.468V2.08672H11.5632ZM14.1737 5.53198C13.7839 5.53198 13.468 5.216 13.468 4.82623H11.5632C11.5632 6.26798 12.732 7.43674 14.1737 7.43674V5.53198ZM19.5238 8.14249C19.5238 6.70074 18.3551 5.53198 16.9133 5.53198V7.43674C17.3031 7.43674 17.6191 7.75272 17.6191 8.14249H19.5238ZM16.9133 13.4204C18.3551 13.4204 19.5238 12.2517 19.5238 10.8099H17.6191C17.6191 11.1997 17.3031 11.5157 16.9133 11.5157V13.4204ZM13.468 14.1262C13.468 13.7364 13.7839 13.4204 14.1737 13.4204V11.5157C12.732 11.5157 11.5632 12.6844 11.5632 14.1262H13.468ZM10.8575 19.4762C12.2992 19.4762 13.468 18.3074 13.468 16.8657H11.5632C11.5632 17.2555 11.2472 17.5714 10.8575 17.5714V19.4762ZM5.57952 16.8657C5.57952 18.3074 6.74828 19.4762 8.19003 19.4762V17.5714C7.80026 17.5714 7.48428 17.2555 7.48428 16.8657H5.57952ZM4.87377 13.4204C5.26355 13.4204 5.57952 13.7364 5.57952 14.1262H7.48428C7.48428 12.6844 6.31552 11.5157 4.87377 11.5157V13.4204ZM-0.476185 10.8099C-0.476185 12.2517 0.692578 13.4204 2.13432 13.4204V11.5157C1.74455 11.5157 1.42858 11.1997 1.42858 10.8099H-0.476185ZM2.13433 5.53198C0.692582 5.53198 -0.476185 6.70074 -0.476185 8.14249H1.42858C1.42858 7.75271 1.74455 7.43674 2.13433 7.43674V5.53198ZM5.57952 4.82623C5.57952 5.21601 5.26355 5.53198 4.87377 5.53198V7.43674C6.31552 7.43674 7.48428 6.26797 7.48428 4.82623H5.57952ZM10.8575 1.38097C11.2472 1.38097 11.5632 1.69694 11.5632 2.08672H13.468C13.468 0.644974 12.2992 -0.523792 10.8575 -0.523792V1.38097ZM8.19003 -0.523792C6.74829 -0.523792 5.57952 0.644973 5.57952 2.08672H7.48428C7.48428 1.69694 7.80026 1.38097 8.19003 1.38097V-0.523792Z" fill="#B4B4B4" mask="url(#path-1-inside-1_2_22)"/>
</svg>
