<svg width="22" height="22" viewBox="0 0 22 22" fill="none" xmlns="http://www.w3.org/2000/svg">
<path d="M9.80999 2.53932C10.2866 1.9507 11.1844 1.9507 11.6611 2.53932L12.8778 4.04188L13.3441 3.66429L12.8778 4.04188C13.3278 4.59762 14.003 4.92276 14.718 4.9281L16.6514 4.94254C17.4088 4.9482 17.9685 5.65012 17.8055 6.38977L17.3894 8.27787C17.2355 8.97621 17.4022 9.70679 17.8439 10.2692L19.038 11.7898C19.5058 12.3854 19.3061 13.2607 18.6261 13.5944L16.8905 14.4463C16.2486 14.7614 15.7813 15.3472 15.617 16.0432L15.1727 17.9249C14.9987 18.662 14.1898 19.0516 13.505 18.728L11.7568 17.9022C11.1102 17.5967 10.3608 17.5967 9.71426 17.9022L7.96609 18.728C7.28126 19.0516 6.47238 18.662 6.29833 17.9249L5.85404 16.0432C5.68971 15.3472 5.22249 14.7614 4.58054 14.4463L2.84491 13.5944C2.16498 13.2607 1.96521 12.3854 2.433 11.7898L3.62714 10.2692C4.06881 9.70679 4.23556 8.97622 4.08165 8.27787L3.66552 6.38977C3.5025 5.65012 4.06226 4.9482 4.81964 4.94254L6.75301 4.9281C7.46809 4.92276 8.14324 4.59762 8.59326 4.04188L9.80999 2.53932Z" stroke="#B4B4B4" stroke-width="1.2"/>
<circle cx="10.7353" cy="10.8441" r="2.8441" stroke="#B4B4B4" stroke-width="1.2"/>
</svg>
